<svg width="36" height="36" viewBox="0 0 36 36" fill="none" xmlns="http://www.w3.org/2000/svg">
<g filter="url(#filter0_i_378_511)">
<path d="M21.863 8.23042C22.3407 7.41732 22.0551 6.37879 21.225 5.91081C20.395 5.44282 19.3347 5.72259 18.857 6.5357L18.0237 7.95391L17.1904 6.5357C16.7126 5.72259 15.6524 5.44282 14.8223 5.91081C13.9922 6.37879 13.7066 7.41732 14.1844 8.23042L16.0228 11.3592L10.2079 21.2557H5.52323C4.56547 21.2557 3.78906 22.0162 3.78906 22.9544C3.78906 23.8925 4.56547 24.6531 5.52323 24.6531H21.8403C21.9833 24.2848 22.1339 23.653 21.9737 23.0723C21.7329 22.1994 20.8417 21.2557 19.3484 21.2557H14.2096L21.863 8.23042Z" fill="black"/>
<path d="M21.863 8.23042C22.3407 7.41732 22.0551 6.37879 21.225 5.91081C20.395 5.44282 19.3347 5.72259 18.857 6.5357L18.0237 7.95391L17.1904 6.5357C16.7126 5.72259 15.6524 5.44282 14.8223 5.91081C13.9922 6.37879 13.7066 7.41732 14.1844 8.23042L16.0228 11.3592L10.2079 21.2557H5.52323C4.56547 21.2557 3.78906 22.0162 3.78906 22.9544C3.78906 23.8925 4.56547 24.6531 5.52323 24.6531H21.8403C21.9833 24.2848 22.1339 23.653 21.9737 23.0723C21.7329 22.1994 20.8417 21.2557 19.3484 21.2557H14.2096L21.863 8.23042Z" fill="black" fill-opacity="0.6"/>
<path d="M11.1097 26.5315C10.8138 26.2096 10.1509 25.6953 9.56962 25.526C8.68328 25.2679 8.01137 25.4299 7.67236 25.5709L6.38062 27.7693C5.90286 28.5824 6.18848 29.6209 7.01856 30.0889C7.84864 30.5569 8.90886 30.2771 9.38662 29.464L11.1097 26.5315Z" fill="black"/>
<path d="M11.1097 26.5315C10.8138 26.2096 10.1509 25.6953 9.56962 25.526C8.68328 25.2679 8.01137 25.4299 7.67236 25.5709L6.38062 27.7693C5.90286 28.5824 6.18848 29.6209 7.01856 30.0889C7.84864 30.5569 8.90886 30.2771 9.38662 29.464L11.1097 26.5315Z" fill="black" fill-opacity="0.6"/>
<path d="M27.8357 24.6531H30.4759C31.4337 24.6531 32.2101 23.8925 32.2101 22.9544C32.2101 22.0162 31.4337 21.2557 30.4759 21.2557H25.8395L20.6167 12.3671C20.2288 12.7282 19.4849 13.6508 19.3725 14.6969C19.2279 16.0417 19.4447 17.1741 20.095 18.283C22.2814 22.0111 24.4712 25.7376 26.6607 29.464C27.1385 30.2771 28.1987 30.5569 29.0288 30.0889C29.8589 29.6209 30.1445 28.5824 29.6667 27.7693L27.8357 24.6531Z" fill="black"/>
<path d="M27.8357 24.6531H30.4759C31.4337 24.6531 32.2101 23.8925 32.2101 22.9544C32.2101 22.0162 31.4337 21.2557 30.4759 21.2557H25.8395L20.6167 12.3671C20.2288 12.7282 19.4849 13.6508 19.3725 14.6969C19.2279 16.0417 19.4447 17.1741 20.095 18.283C22.2814 22.0111 24.4712 25.7376 26.6607 29.464C27.1385 30.2771 28.1987 30.5569 29.0288 30.0889C29.8589 29.6209 30.1445 28.5824 29.6667 27.7693L27.8357 24.6531Z" fill="black" fill-opacity="0.6"/>
</g>
<path d="M17.0753 8.51117L18.0237 10.1253L18.9721 8.51117L19.8054 7.09295C19.974 6.80605 20.3681 6.69046 20.6848 6.86901C20.9887 7.04031 21.0751 7.39999 20.9146 7.67316L13.2612 20.6984L12.2875 22.3557H14.2096H19.3484C20.32 22.3557 20.7968 22.9426 20.9133 23.3649C20.9283 23.4191 20.9379 23.4821 20.9413 23.5531H5.52323C5.15144 23.5531 4.88906 23.2637 4.88906 22.9544C4.88906 22.6451 5.15144 22.3557 5.52323 22.3557H10.2079H10.8374L11.1563 21.8129L16.9712 11.9165L17.2986 11.3592L16.9712 10.802L15.1328 7.67316C14.9723 7.39999 15.0587 7.04031 15.3625 6.86901C15.6792 6.69046 16.0734 6.80605 16.242 7.09295L17.0753 8.51117ZM9.26205 26.5821C9.36732 26.6128 9.51511 26.6819 9.68401 26.7866L8.43822 28.9068C8.26964 29.1937 7.87549 29.3093 7.55878 29.1307C7.25494 28.9594 7.16851 28.5997 7.32902 28.3266L6.38062 27.7693L7.32902 28.3266L8.39812 26.5071C8.60649 26.4769 8.89954 26.4766 9.26205 26.5821ZM20.4662 14.8144C20.4796 14.6896 20.5094 14.5606 20.5531 14.4301L24.8911 21.8129L25.21 22.3557H25.8395H30.4759C30.8477 22.3557 31.1101 22.6451 31.1101 22.9544C31.1101 23.2637 30.8477 23.5531 30.4759 23.5531H27.8357H25.9135L26.8873 25.2103L28.7183 28.3266C28.8788 28.5997 28.7924 28.9594 28.4886 29.1307C28.1719 29.3093 27.7777 29.1937 27.6091 28.9068L27.3582 28.4798C25.2522 24.8956 23.1465 21.3118 21.0439 17.7265L20.095 18.283L21.0439 17.7265C20.5244 16.8407 20.3443 15.9486 20.4662 14.8144L19.3725 14.6969L20.4662 14.8144Z" stroke="black" stroke-width="2.2"/>
<defs>
<filter id="filter0_i_378_511" x="1.60573" y="4.33408" width="30.6042" height="25.9813" filterUnits="userSpaceOnUse" color-interpolation-filters="sRGB">
<feFlood flood-opacity="0" result="BackgroundImageFix"/>
<feBlend mode="normal" in="SourceGraphic" in2="BackgroundImageFix" result="shape"/>
<feColorMatrix in="SourceAlpha" type="matrix" values="0 0 0 0 0 0 0 0 0 0 0 0 0 0 0 0 0 0 127 0" result="hardAlpha"/>
<feOffset dx="-2.18333" dy="-1.35"/>
<feGaussianBlur stdDeviation="1.93333"/>
<feComposite in2="hardAlpha" operator="arithmetic" k2="-1" k3="1"/>
<feColorMatrix type="matrix" values="0 0 0 0 0.980392 0 0 0 0 0.980392 0 0 0 0 0.980392 0 0 0 0.22 0"/>
<feBlend mode="normal" in2="shape" result="effect1_innerShadow_378_511"/>
</filter>
</defs>
</svg>
