<svg width="182" height="40" viewBox="0 0 182 40" fill="none" xmlns="http://www.w3.org/2000/svg">
<path d="M64.52 6.08C67.4533 6.08 70.0267 6.65333 72.24 7.8C74.48 8.94666 76.2 10.5867 77.4 12.72C78.6267 14.8267 79.24 17.28 79.24 20.08C79.24 22.88 78.6267 25.3333 77.4 27.44C76.2 29.52 74.48 31.1333 72.24 32.28C70.0267 33.4267 67.4533 34 64.52 34H54.76V6.08H64.52ZM64.32 29.24C67.2533 29.24 69.52 28.44 71.12 26.84C72.72 25.24 73.52 22.9867 73.52 20.08C73.52 17.1733 72.72 14.9067 71.12 13.28C69.52 11.6267 67.2533 10.8 64.32 10.8H60.36V29.24H64.32ZM86.2719 9.2C85.2852 9.2 84.4585 8.89333 83.7919 8.28C83.1519 7.64 82.8319 6.85333 82.8319 5.92C82.8319 4.98667 83.1519 4.21333 83.7919 3.6C84.4585 2.96 85.2852 2.64 86.2719 2.64C87.2585 2.64 88.0719 2.96 88.7119 3.6C89.3785 4.21333 89.7119 4.98667 89.7119 5.92C89.7119 6.85333 89.3785 7.64 88.7119 8.28C88.0719 8.89333 87.2585 9.2 86.2719 9.2ZM89.0319 11.84V34H83.4319V11.84H89.0319ZM103.805 28.84L109.405 11.84H115.365L107.165 34H100.365L92.2047 11.84H98.2047L103.805 28.84ZM124.11 4.4V34H118.51V4.4H124.11ZM139.483 34.36C137.349 34.36 135.429 33.8933 133.723 32.96C132.016 32 130.669 30.6533 129.683 28.92C128.723 27.1867 128.243 25.1867 128.243 22.92C128.243 20.6533 128.736 18.6533 129.723 16.92C130.736 15.1867 132.109 13.8533 133.843 12.92C135.576 11.96 137.509 11.48 139.643 11.48C141.776 11.48 143.709 11.96 145.443 12.92C147.176 13.8533 148.536 15.1867 149.523 16.92C150.536 18.6533 151.043 20.6533 151.043 22.92C151.043 25.1867 150.523 27.1867 149.483 28.92C148.469 30.6533 147.083 32 145.323 32.96C143.589 33.8933 141.643 34.36 139.483 34.36ZM139.483 29.48C140.496 29.48 141.443 29.24 142.323 28.76C143.229 28.2533 143.949 27.5067 144.483 26.52C145.016 25.5333 145.283 24.3333 145.283 22.92C145.283 20.8133 144.723 19.2 143.603 18.08C142.509 16.9333 141.163 16.36 139.563 16.36C137.963 16.36 136.616 16.9333 135.523 18.08C134.456 19.2 133.923 20.8133 133.923 22.92C133.923 25.0267 134.443 26.6533 135.483 27.8C136.549 28.92 137.883 29.48 139.483 29.48ZM165.311 16.44H161.431V34H155.751V16.44H153.231V11.84H155.751V10.72C155.751 8 156.524 6 158.071 4.72C159.617 3.44 161.951 2.84 165.071 2.92V7.64C163.711 7.61333 162.764 7.84 162.231 8.32C161.697 8.8 161.431 9.66667 161.431 10.92V11.84H165.311V16.44ZM175.46 16.44V27.16C175.46 27.9067 175.633 28.4533 175.98 28.8C176.353 29.12 176.966 29.28 177.82 29.28H180.42V34H176.9C172.18 34 169.82 31.7067 169.82 27.12V16.44H167.18V11.84H169.82V6.36H175.46V11.84H180.42V16.44H175.46Z" fill="white"/>
<rect width="40" height="40" rx="20" fill="#FF4A00"/>
<g clip-path="url(#clip0_383_507)">
<path d="M21.5736 13.5969L25.7455 9.30833L28.1674 11.7885L23.7913 15.9604H29.9465V19.4031H23.7622L28.1674 23.6823L25.7455 26.1135L19.7653 20.1042L13.7851 26.1135L11.3632 23.6917L15.7684 19.4125H9.58301V15.9604H15.7382L11.3622 11.7885L13.784 9.30833L17.9559 13.5969V7.5H21.5736V13.5969ZM17.9559 24.3333H21.5736V32.5021H17.9559V24.3333Z" fill="white"/>
</g>
<defs>
<clipPath id="clip0_383_507">
<rect width="25" height="25" fill="white" transform="translate(7.5 7.5)"/>
</clipPath>
</defs>
</svg>
