<svg width="227" height="44" viewBox="0 0 227 44" fill="none" xmlns="http://www.w3.org/2000/svg">
<path d="M55.196 35V5.90909H73.2358V9.6875H59.5852V18.5511H71.9432V22.3153H59.5852V35H55.196ZM82.5398 5.90909V35H78.2926V5.90909H82.5398ZM97.4439 35.4403C95.3984 35.4403 93.6134 34.9716 92.0888 34.0341C90.5642 33.0966 89.3804 31.785 88.5376 30.0994C87.6948 28.4138 87.2734 26.4441 87.2734 24.1903C87.2734 21.9271 87.6948 19.9479 88.5376 18.2528C89.3804 16.5578 90.5642 15.2415 92.0888 14.304C93.6134 13.3665 95.3984 12.8977 97.4439 12.8977C99.4893 12.8977 101.274 13.3665 102.799 14.304C104.324 15.2415 105.507 16.5578 106.35 18.2528C107.193 19.9479 107.614 21.9271 107.614 24.1903C107.614 26.4441 107.193 28.4138 106.35 30.0994C105.507 31.785 104.324 33.0966 102.799 34.0341C101.274 34.9716 99.4893 35.4403 97.4439 35.4403ZM97.4581 31.875C98.7839 31.875 99.8823 31.5246 100.754 30.8239C101.625 30.1231 102.269 29.1903 102.685 28.0256C103.112 26.8608 103.325 25.5777 103.325 24.1761C103.325 22.7841 103.112 21.5057 102.685 20.3409C102.269 19.1667 101.625 18.2244 100.754 17.5142C99.8823 16.804 98.7839 16.4489 97.4581 16.4489C96.1229 16.4489 95.0149 16.804 94.1342 17.5142C93.263 18.2244 92.6143 19.1667 92.1882 20.3409C91.7715 21.5057 91.5632 22.7841 91.5632 24.1761C91.5632 25.5777 91.7715 26.8608 92.1882 28.0256C92.6143 29.1903 93.263 30.1231 94.1342 30.8239C95.0149 31.5246 96.1229 31.875 97.4581 31.875ZM116.421 35L110.001 13.1818H114.39L118.665 29.2045H118.879L123.168 13.1818H127.558L131.819 29.1335H132.032L136.279 13.1818H140.668L134.262 35H129.93L125.498 19.2472H125.171L120.739 35H116.421ZM144.699 43.1818V13.1818H148.847V16.7188H149.202C149.448 16.2642 149.803 15.7386 150.267 15.142C150.731 14.5455 151.375 14.0246 152.199 13.5795C153.023 13.125 154.112 12.8977 155.466 12.8977C157.227 12.8977 158.799 13.3428 160.182 14.233C161.564 15.1231 162.649 16.4062 163.435 18.0824C164.23 19.7585 164.628 21.7756 164.628 24.1335C164.628 26.4915 164.235 28.5133 163.449 30.1989C162.663 31.875 161.583 33.1676 160.21 34.0767C158.837 34.9763 157.27 35.4261 155.509 35.4261C154.183 35.4261 153.098 35.2036 152.256 34.7585C151.422 34.3134 150.769 33.7926 150.295 33.196C149.822 32.5994 149.457 32.0691 149.202 31.6051H148.946V43.1818H144.699ZM148.861 24.0909C148.861 25.625 149.083 26.9697 149.528 28.125C149.973 29.2803 150.617 30.1847 151.46 30.8381C152.303 31.482 153.335 31.804 154.557 31.804C155.826 31.804 156.886 31.4678 157.739 30.7955C158.591 30.1136 159.235 29.1903 159.67 28.0256C160.116 26.8608 160.338 25.5492 160.338 24.0909C160.338 22.6515 160.12 21.3589 159.685 20.2131C159.259 19.0672 158.615 18.1629 157.753 17.5C156.901 16.8371 155.835 16.5057 154.557 16.5057C153.326 16.5057 152.284 16.8229 151.432 17.4574C150.589 18.0919 149.95 18.9773 149.514 20.1136C149.079 21.25 148.861 22.5758 148.861 24.0909ZM175.736 35.483C174.353 35.483 173.103 35.2273 171.986 34.7159C170.868 34.1951 169.983 33.4422 169.33 32.4574C168.686 31.4725 168.364 30.2652 168.364 28.8352C168.364 27.6042 168.6 26.5909 169.074 25.7955C169.547 25 170.187 24.3703 170.991 23.9062C171.796 23.4422 172.696 23.0919 173.69 22.8551C174.685 22.6184 175.698 22.4384 176.73 22.3153C178.037 22.1638 179.098 22.0407 179.912 21.946C180.726 21.8419 181.318 21.6761 181.688 21.4489C182.057 21.2216 182.241 20.8523 182.241 20.3409V20.2415C182.241 19.0009 181.891 18.0398 181.19 17.358C180.499 16.6761 179.467 16.3352 178.094 16.3352C176.664 16.3352 175.537 16.6525 174.713 17.2869C173.899 17.9119 173.335 18.608 173.023 19.375L169.031 18.4659C169.505 17.1402 170.196 16.0701 171.105 15.2557C172.024 14.4318 173.08 13.8352 174.273 13.4659C175.466 13.0871 176.721 12.8977 178.037 12.8977C178.908 12.8977 179.831 13.0019 180.807 13.2102C181.792 13.4091 182.71 13.7784 183.562 14.3182C184.424 14.858 185.13 15.6297 185.679 16.6335C186.228 17.6278 186.503 18.9205 186.503 20.5114V35H182.355V32.017H182.185C181.91 32.5663 181.498 33.1061 180.949 33.6364C180.4 34.1667 179.694 34.607 178.832 34.9574C177.971 35.3078 176.938 35.483 175.736 35.483ZM176.659 32.0739C177.833 32.0739 178.837 31.8419 179.67 31.3778C180.513 30.9138 181.152 30.3078 181.588 29.5597C182.033 28.8021 182.256 27.9924 182.256 27.1307V24.3182C182.104 24.4697 181.811 24.6117 181.375 24.7443C180.949 24.8674 180.461 24.9763 179.912 25.071C179.363 25.1562 178.828 25.2367 178.307 25.3125C177.786 25.3788 177.35 25.4356 177 25.483C176.176 25.5871 175.423 25.7623 174.741 26.0085C174.069 26.2547 173.529 26.6098 173.122 27.0739C172.724 27.5284 172.526 28.1345 172.526 28.892C172.526 29.9432 172.914 30.7386 173.69 31.2784C174.467 31.8087 175.456 32.0739 176.659 32.0739ZM192.16 35V13.1818H196.265V16.6477H196.492C196.89 15.4735 197.591 14.5502 198.594 13.8778C199.608 13.196 200.754 12.8551 202.032 12.8551C202.297 12.8551 202.61 12.8646 202.969 12.8835C203.339 12.9025 203.628 12.9261 203.836 12.9545V17.017C203.665 16.9697 203.362 16.9176 202.927 16.8608C202.491 16.7945 202.056 16.7614 201.62 16.7614C200.616 16.7614 199.721 16.9744 198.935 17.4006C198.159 17.8172 197.543 18.3996 197.089 19.1477C196.634 19.8864 196.407 20.7292 196.407 21.6761V35H192.16ZM211.418 27.5994L211.389 22.4148H212.128L220.821 13.1818H225.906L215.991 23.6932H215.324L211.418 27.5994ZM207.511 35V5.90909H211.759V35H207.511ZM221.29 35L213.477 24.6307L216.403 21.6619L226.503 35H221.29Z" fill="white"/>
<rect width="40" height="40" rx="20" fill="#9DBD40"/>
<g clip-path="url(#clip0_383_500)">
<path d="M28.4551 14.9981V22.0303L24.0882 19.5095V17.5197L19.7991 15.043L15.5093 17.5197V19.5095L11.1426 22.0303V14.9981L19.7986 10L28.4551 14.9981Z" fill="black"/>
<path d="M28.4555 24.9922V30.0006L24.1275 27.5021L19.8001 30.0006L15.4721 27.5021L11.1436 30.0006V24.9922L13.2006 23.803L15.5081 22.4697V22.4812L19.8001 24.9584L24.0893 22.4817V22.4703L26.3966 23.8035L28.4555 24.9922Z" fill="black"/>
</g>
<defs>
<clipPath id="clip0_383_500">
<rect width="20" height="20" fill="white" transform="translate(10 10)"/>
</clipPath>
</defs>
</svg>
