<svg width="186" height="44" viewBox="0 0 186 44" fill="none" xmlns="http://www.w3.org/2000/svg">
<path d="M55.196 35V5.90909H65.8494C67.9138 5.90909 69.6231 6.25 70.9773 6.93182C72.3314 7.60417 73.3447 8.51799 74.017 9.6733C74.6894 10.8191 75.0256 12.1117 75.0256 13.5511C75.0256 14.7633 74.803 15.786 74.358 16.6193C73.9129 17.4432 73.3163 18.1061 72.5682 18.608C71.8295 19.1004 71.0152 19.4602 70.125 19.6875V19.9716C71.0909 20.0189 72.0331 20.3314 72.9517 20.9091C73.8797 21.4773 74.6468 22.2869 75.2528 23.3381C75.8589 24.3892 76.1619 25.6676 76.1619 27.1733C76.1619 28.66 75.8116 29.9953 75.1108 31.179C74.4195 32.3532 73.3494 33.286 71.9006 33.9773C70.4517 34.6591 68.6004 35 66.3466 35H55.196ZM59.5852 31.2358H65.9205C68.0227 31.2358 69.5284 30.8286 70.4375 30.0142C71.3466 29.1998 71.8011 28.1818 71.8011 26.9602C71.8011 26.0417 71.5691 25.1989 71.1051 24.4318C70.6411 23.6648 69.9782 23.054 69.1165 22.5994C68.2642 22.1449 67.2509 21.9176 66.0767 21.9176H59.5852V31.2358ZM59.5852 18.4943H65.4659C66.4508 18.4943 67.3362 18.3049 68.1222 17.9261C68.9176 17.5473 69.5473 17.017 70.0114 16.3352C70.4848 15.6439 70.7216 14.8295 70.7216 13.892C70.7216 12.6894 70.3002 11.6809 69.4574 10.8665C68.6146 10.0521 67.322 9.64489 65.5795 9.64489H59.5852V18.4943ZM94.848 25.9517V13.1818H99.1094V35H94.9332V31.2216H94.706C94.2041 32.3864 93.3991 33.357 92.2912 34.1335C91.1927 34.9006 89.8243 35.2841 88.1861 35.2841C86.7846 35.2841 85.544 34.9763 84.4645 34.3608C83.3944 33.7358 82.5516 32.8125 81.9361 31.5909C81.33 30.3693 81.027 28.8589 81.027 27.0597V13.1818H85.2741V26.5483C85.2741 28.035 85.6861 29.2187 86.5099 30.0994C87.3338 30.9801 88.4039 31.4205 89.7202 31.4205C90.5156 31.4205 91.3063 31.2216 92.0923 30.8239C92.8878 30.4261 93.5459 29.8248 94.0668 29.0199C94.5971 28.215 94.8575 27.1922 94.848 25.9517ZM104.816 35V13.1818H109.063V35H104.816ZM106.961 9.81534C106.222 9.81534 105.588 9.56913 105.058 9.0767C104.537 8.57481 104.276 7.97822 104.276 7.28693C104.276 6.58617 104.537 5.98958 105.058 5.49716C105.588 4.99526 106.222 4.74432 106.961 4.74432C107.7 4.74432 108.329 4.99526 108.85 5.49716C109.38 5.98958 109.646 6.58617 109.646 7.28693C109.646 7.97822 109.38 8.57481 108.85 9.0767C108.329 9.56913 107.7 9.81534 106.961 9.81534ZM119.024 5.90909V35H114.777V5.90909H119.024ZM134.923 13.1818V16.5909H123.005V13.1818H134.923ZM126.201 7.95455H130.448V28.5938C130.448 29.4176 130.571 30.0379 130.817 30.4545C131.064 30.8617 131.381 31.1411 131.769 31.2926C132.167 31.4347 132.598 31.5057 133.062 31.5057C133.403 31.5057 133.701 31.482 133.957 31.4347C134.212 31.3873 134.411 31.3494 134.553 31.321L135.32 34.8295C135.074 34.9242 134.724 35.0189 134.269 35.1136C133.815 35.2178 133.246 35.2746 132.565 35.2841C131.447 35.303 130.406 35.1042 129.44 34.6875C128.474 34.2708 127.692 33.6269 127.096 32.7557C126.499 31.8845 126.201 30.7907 126.201 29.4744V7.95455ZM153.442 25.9517V13.1818H157.703V35H153.527V31.2216H153.3C152.798 32.3864 151.993 33.357 150.885 34.1335C149.786 34.9006 148.418 35.2841 146.78 35.2841C145.378 35.2841 144.138 34.9763 143.058 34.3608C141.988 33.7358 141.145 32.8125 140.53 31.5909C139.924 30.3693 139.621 28.8589 139.621 27.0597V13.1818H143.868V26.5483C143.868 28.035 144.28 29.2187 145.104 30.0994C145.928 30.9801 146.998 31.4205 148.314 31.4205C149.109 31.4205 149.9 31.2216 150.686 30.8239C151.482 30.4261 152.14 29.8248 152.661 29.0199C153.191 28.215 153.451 27.1922 153.442 25.9517ZM163.41 43.1818V13.1818H167.558V16.7188H167.913C168.159 16.2642 168.514 15.7386 168.978 15.142C169.442 14.5455 170.086 14.0246 170.91 13.5795C171.734 13.125 172.823 12.8977 174.177 12.8977C175.938 12.8977 177.51 13.3428 178.893 14.233C180.275 15.1231 181.36 16.4062 182.146 18.0824C182.941 19.7585 183.339 21.7756 183.339 24.1335C183.339 26.4915 182.946 28.5133 182.16 30.1989C181.374 31.875 180.294 33.1676 178.921 34.0767C177.548 34.9763 175.981 35.4261 174.219 35.4261C172.894 35.4261 171.809 35.2036 170.967 34.7585C170.133 34.3134 169.48 33.7926 169.006 33.196C168.533 32.5994 168.168 32.0691 167.913 31.6051H167.657V43.1818H163.41ZM167.572 24.0909C167.572 25.625 167.794 26.9697 168.239 28.125C168.684 29.2803 169.328 30.1847 170.171 30.8381C171.014 31.482 172.046 31.804 173.268 31.804C174.537 31.804 175.597 31.4678 176.45 30.7955C177.302 30.1136 177.946 29.1903 178.381 28.0256C178.826 26.8608 179.049 25.5492 179.049 24.0909C179.049 22.6515 178.831 21.3589 178.396 20.2131C177.969 19.0672 177.326 18.1629 176.464 17.5C175.612 16.8371 174.546 16.5057 173.268 16.5057C172.037 16.5057 170.995 16.8229 170.143 17.4574C169.3 18.0919 168.661 18.9773 168.225 20.1136C167.79 21.25 167.572 22.5758 167.572 24.0909Z" fill="white"/>
<rect width="40" height="40" rx="20" fill="#3CC7C7"/>
<path d="M19.0836 18.8038C21.4367 17.4965 24.6596 15.7057 24.6596 10.4937H20.7571C20.7571 13.4098 19.3374 14.1985 17.1884 15.3924C14.8352 16.7002 11.6123 18.4903 11.6123 23.7028H15.5148C15.5148 20.7865 16.9345 19.9978 19.0836 18.8038Z" fill="black"/>
<path d="M25.8372 17.606C25.8372 20.5222 24.4175 21.311 22.2684 22.5047C19.9159 23.812 16.6924 25.6026 16.6924 30.815H20.5947C20.5947 27.8987 22.0144 27.11 24.1635 25.9161C26.5166 24.6088 29.7394 22.8184 29.7394 17.606H25.8372Z" fill="black"/>
</svg>
