<svg width="129" height="26" viewBox="0 0 129 26" fill="none" xmlns="http://www.w3.org/2000/svg">
<path d="M36.7216 21V3.54545H43.267C44.608 3.54545 45.733 3.79545 46.642 4.29545C47.5568 4.79545 48.2472 5.48295 48.7131 6.35795C49.1847 7.22727 49.4205 8.21591 49.4205 9.32386C49.4205 10.4432 49.1847 11.4375 48.7131 12.3068C48.2415 13.1761 47.5455 13.8608 46.625 14.3608C45.7045 14.8551 44.571 15.1023 43.2244 15.1023H38.8864V12.5028H42.7983C43.5824 12.5028 44.2244 12.3665 44.7244 12.0938C45.2244 11.821 45.5938 11.446 45.8324 10.9688C46.0767 10.4915 46.1989 9.94318 46.1989 9.32386C46.1989 8.70455 46.0767 8.15909 45.8324 7.6875C45.5938 7.21591 45.2216 6.84943 44.7159 6.58807C44.2159 6.32102 43.571 6.1875 42.7812 6.1875H39.8835V21H36.7216ZM55.5632 21.2642C54.7337 21.2642 53.9865 21.1165 53.3217 20.821C52.6626 20.5199 52.1399 20.0767 51.7536 19.4915C51.3729 18.9062 51.1825 18.1847 51.1825 17.3267C51.1825 16.5881 51.3189 15.9773 51.5916 15.4943C51.8643 15.0114 52.2365 14.625 52.7081 14.3352C53.1797 14.0455 53.7109 13.8267 54.3018 13.679C54.8984 13.5256 55.5149 13.4148 56.1513 13.3466C56.9183 13.267 57.5405 13.196 58.0178 13.1335C58.495 13.0653 58.8416 12.9631 59.0575 12.8267C59.2791 12.6847 59.3899 12.4659 59.3899 12.1705V12.1193C59.3899 11.4773 59.1996 10.9801 58.8189 10.6278C58.4382 10.2756 57.8899 10.0994 57.174 10.0994C56.4183 10.0994 55.8189 10.2642 55.3757 10.5938C54.9382 10.9233 54.6428 11.3125 54.4893 11.7614L51.6087 11.3523C51.8359 10.5568 52.2109 9.89205 52.7337 9.35795C53.2564 8.81818 53.8956 8.41477 54.6513 8.14773C55.407 7.875 56.2422 7.73864 57.157 7.73864C57.7876 7.73864 58.4155 7.8125 59.0405 7.96023C59.6655 8.10795 60.2365 8.35227 60.7536 8.69318C61.2706 9.02841 61.6854 9.4858 61.9979 10.0653C62.3161 10.6449 62.4751 11.3693 62.4751 12.2386V21H59.5092V19.2017H59.407C59.2195 19.5653 58.9553 19.9062 58.6143 20.2244C58.2791 20.5369 57.8558 20.7898 57.3445 20.983C56.8388 21.1705 56.245 21.2642 55.5632 21.2642ZM56.3643 18.9972C56.9837 18.9972 57.5206 18.875 57.9751 18.6307C58.4297 18.3807 58.7791 18.0511 59.0234 17.642C59.2734 17.233 59.3984 16.7869 59.3984 16.304V14.7614C59.3018 14.8409 59.1371 14.9148 58.9041 14.983C58.6768 15.0511 58.4212 15.1108 58.1371 15.1619C57.853 15.2131 57.5717 15.2585 57.2933 15.2983C57.0149 15.3381 56.7734 15.3722 56.5689 15.4006C56.1087 15.4631 55.6967 15.5653 55.3331 15.7074C54.9695 15.8494 54.6825 16.0483 54.4723 16.304C54.2621 16.554 54.157 16.8778 54.157 17.2756C54.157 17.8438 54.3643 18.2727 54.7791 18.5625C55.1939 18.8523 55.7223 18.9972 56.3643 18.9972ZM67.0263 25.9091C66.6058 25.9091 66.2166 25.875 65.8587 25.8068C65.5064 25.7443 65.2251 25.6705 65.0149 25.5852L65.7308 23.1818C66.1797 23.3125 66.5803 23.375 66.9325 23.3693C67.2848 23.3636 67.5945 23.2528 67.8615 23.0369C68.1342 22.8267 68.3643 22.4744 68.5518 21.9801L68.8161 21.2727L64.0689 7.90909H67.3416L70.3587 17.7955H70.495L73.5206 7.90909H76.8018L71.5604 22.5852C71.3161 23.2784 70.9922 23.8722 70.5888 24.3665C70.1854 24.8665 69.6911 25.2472 69.1058 25.5085C68.5263 25.7756 67.8331 25.9091 67.0263 25.9091ZM78.9368 21V7.90909H81.8857V10.1335H82.0391C82.3118 9.38352 82.7635 8.7983 83.3942 8.37784C84.0249 7.9517 84.7777 7.73864 85.6527 7.73864C86.5391 7.73864 87.2862 7.95455 87.8942 8.38636C88.5078 8.8125 88.9396 9.39489 89.1896 10.1335H89.326C89.6158 9.40625 90.1044 8.8267 90.7919 8.39489C91.4851 7.95739 92.3061 7.73864 93.255 7.73864C94.4595 7.73864 95.4425 8.11932 96.2038 8.88068C96.9652 9.64205 97.3459 10.7528 97.3459 12.2131V21H94.2521V12.6903C94.2521 11.8778 94.0362 11.2841 93.6044 10.9091C93.1726 10.5284 92.6442 10.3381 92.0192 10.3381C91.2749 10.3381 90.6925 10.571 90.272 11.0369C89.8572 11.4972 89.6499 12.0966 89.6499 12.8352V21H86.6243V12.5625C86.6243 11.8864 86.4197 11.3466 86.0107 10.9432C85.6072 10.5398 85.0788 10.3381 84.4254 10.3381C83.9822 10.3381 83.5788 10.4517 83.2152 10.679C82.8516 10.9006 82.5618 11.2159 82.3459 11.625C82.13 12.0284 82.022 12.5 82.022 13.0398V21H78.9368ZM106.186 21.2557C104.908 21.2557 103.8 20.9744 102.862 20.4119C101.925 19.8494 101.197 19.0625 100.68 18.0511C100.169 17.0398 99.9134 15.858 99.9134 14.5057C99.9134 13.1534 100.169 11.9687 100.68 10.9517C101.197 9.93466 101.925 9.14489 102.862 8.58239C103.8 8.01989 104.908 7.73864 106.186 7.73864C107.464 7.73864 108.572 8.01989 109.51 8.58239C110.447 9.14489 111.172 9.93466 111.683 10.9517C112.2 11.9687 112.459 13.1534 112.459 14.5057C112.459 15.858 112.2 17.0398 111.683 18.0511C111.172 19.0625 110.447 19.8494 109.51 20.4119C108.572 20.9744 107.464 21.2557 106.186 21.2557ZM106.203 18.7841C106.896 18.7841 107.476 18.5937 107.942 18.2131C108.408 17.8267 108.754 17.3097 108.982 16.6619C109.214 16.0142 109.331 15.2926 109.331 14.4972C109.331 13.696 109.214 12.9716 108.982 12.3239C108.754 11.6705 108.408 11.1506 107.942 10.7642C107.476 10.3778 106.896 10.1847 106.203 10.1847C105.493 10.1847 104.902 10.3778 104.43 10.7642C103.964 11.1506 103.615 11.6705 103.382 12.3239C103.155 12.9716 103.041 13.696 103.041 14.4972C103.041 15.2926 103.155 16.0142 103.382 16.6619C103.615 17.3097 103.964 17.8267 104.43 18.2131C104.902 18.5937 105.493 18.7841 106.203 18.7841ZM118.163 13.3295V21H115.077V7.90909H118.026V10.1335H118.18C118.481 9.40057 118.961 8.81818 119.62 8.38636C120.285 7.95455 121.106 7.73864 122.083 7.73864C122.987 7.73864 123.773 7.93182 124.444 8.31818C125.12 8.70455 125.643 9.2642 126.012 9.99716C126.387 10.7301 126.572 11.6193 126.566 12.6648V21H123.481V13.142C123.481 12.267 123.254 11.5824 122.799 11.0881C122.35 10.5937 121.728 10.3466 120.933 10.3466C120.393 10.3466 119.913 10.4659 119.492 10.7045C119.077 10.9375 118.751 11.2756 118.512 11.7188C118.279 12.1619 118.163 12.6989 118.163 13.3295Z" fill="#E5E5E5"/>
<path fill-rule="evenodd" clip-rule="evenodd" d="M18.9331 3.5021C19.1511 3.63049 19.3316 3.8138 19.4566 4.03375C19.5816 4.25369 19.6467 4.50257 19.6455 4.75555V10.0808C19.6387 10.3201 19.5723 10.554 19.4524 10.7612C19.3583 10.9283 19.2321 11.0752 19.081 11.1933L6.09104 18.6938C5.3234 19.1189 5.3125 19.4498 5.3125 19.4498V4.74232C5.31491 4.4891 5.3835 4.24092 5.51147 4.0224C5.63944 3.80389 5.82233 3.62264 6.04199 3.49665L11.7682 0.186284C11.9882 0.0624598 12.2368 -0.00173936 12.4893 3.58399e-05C12.7418 0.00181104 12.9894 0.0694994 13.2077 0.196406L18.9331 3.5021Z" fill="#E5E5E5"/>
<path fill-rule="evenodd" clip-rule="evenodd" d="M6.11313 19.7207L6.07965 19.7425C5.33536 20.2532 5.45681 20.6767 5.52688 20.8426C5.63468 21.044 5.80918 21.2017 6.02048 21.2887L6.29141 21.4444L12.4808 25V16L6.11313 19.7207Z" fill="#E5E5E5"/>
</svg>
