<svg width="140" height="20" viewBox="0 0 140 20" fill="none" xmlns="http://www.w3.org/2000/svg">
<path d="M10.0008 15.2165L4.12295 18.5067L5.43573 11.8998L0.490234 7.32634L7.17943 6.53322L10.0008 0.416504L12.8222 6.53322L19.5113 7.32634L14.5659 11.8998L15.8787 18.5067L10.0008 15.2165Z" fill="#95B43A"/>
<path d="M40.0008 15.2165L34.123 18.5067L35.4357 11.8998L30.4902 7.32634L37.1794 6.53322L40.0008 0.416504L42.8222 6.53322L49.5113 7.32634L44.5659 11.8998L45.8787 18.5067L40.0008 15.2165Z" fill="#95B43A"/>
<path d="M70.0008 15.2165L64.123 18.5067L65.4357 11.8998L60.4902 7.32634L67.1794 6.53322L70.0008 0.416504L72.8222 6.53322L79.5113 7.32634L74.5659 11.8998L75.8787 18.5067L70.0008 15.2165Z" fill="#95B43A"/>
<path d="M100.001 15.2165L94.123 18.5067L95.4357 11.8998L90.4902 7.32634L97.1794 6.53322L100.001 0.416504L102.822 6.53322L109.511 7.32634L104.566 11.8998L105.879 18.5067L100.001 15.2165Z" fill="#95B43A"/>
<path d="M130.001 13.3065L133.54 15.2874L132.749 11.3096L135.727 8.556L131.699 8.07845L130.001 4.39569V13.3065ZM130.001 15.2165L124.123 18.5067L125.436 11.8998L120.49 7.32634L127.179 6.53322L130.001 0.416504L132.822 6.53322L139.511 7.32634L134.566 11.8998L135.879 18.5067L130.001 15.2165Z" fill="#95B43A"/>
</svg>
