<svg width="64" height="64" viewBox="0 0 64 64" fill="none" xmlns="http://www.w3.org/2000/svg">
<circle cx="32" cy="32" r="32" fill="#262626"/>
<path d="M38 28H40C40.5523 28 41 28.4477 41 29V41C41 41.5523 40.5523 42 40 42H24C23.4477 42 23 41.5523 23 41V29C23 28.4477 23.4477 28 24 28H26V27C26 23.6863 28.6863 21 32 21C35.3137 21 38 23.6863 38 27V28ZM36 28V27C36 24.7909 34.2091 23 32 23C29.7909 23 28 24.7909 28 27V28H36ZM27 31V33H29V31H27ZM27 34V36H29V34H27ZM27 37V39H29V37H27Z" fill="#95B43A"/>
</svg>
