<svg width="36" height="36" viewBox="0 0 36 36" fill="none" xmlns="http://www.w3.org/2000/svg">
<rect x="0.5" y="0.5" width="35" height="35" rx="17.5" fill="#141414" stroke="#242424"/>
<path d="M18 20C19.1046 20 20 19.1046 20 18C20 16.8954 19.1046 16 18 16C16.8954 16 16 16.8954 16 18C16 19.1046 16.8954 20 18 20Z" fill="#E5E5E5"/>
<path d="M20.75 11.75H15.25C14.3217 11.75 13.4315 12.1187 12.7751 12.7751C12.1187 13.4315 11.75 14.3217 11.75 15.25V20.75C11.75 21.6783 12.1187 22.5685 12.7751 23.2249C13.4315 23.8813 14.3217 24.25 15.25 24.25H20.75C21.6783 24.25 22.5685 23.8813 23.2249 23.2249C23.8813 22.5685 24.25 21.6783 24.25 20.75V15.25C24.25 14.3217 23.8813 13.4315 23.2249 12.7751C22.5685 12.1187 21.6783 11.75 20.75 11.75ZM18 21C17.4067 21 16.8266 20.8241 16.3333 20.4944C15.8399 20.1648 15.4554 19.6962 15.2284 19.1481C15.0013 18.5999 14.9419 17.9967 15.0576 17.4147C15.1734 16.8328 15.4591 16.2982 15.8787 15.8787C16.2982 15.4591 16.8328 15.1734 17.4147 15.0576C17.9967 14.9419 18.5999 15.0013 19.1481 15.2284C19.6962 15.4554 20.1648 15.8399 20.4944 16.3333C20.8241 16.8266 21 17.4067 21 18C21 18.7956 20.6839 19.5587 20.1213 20.1213C19.5587 20.6839 18.7956 21 18 21ZM21.25 15.5C21.1017 15.5 20.9567 15.456 20.8333 15.3736C20.71 15.2912 20.6139 15.1741 20.5571 15.037C20.5003 14.9 20.4855 14.7492 20.5144 14.6037C20.5434 14.4582 20.6148 14.3246 20.7197 14.2197C20.8246 14.1148 20.9582 14.0433 21.1037 14.0144C21.2492 13.9855 21.4 14.0003 21.537 14.0571C21.6741 14.1139 21.7912 14.21 21.8736 14.3333C21.956 14.4567 22 14.6017 22 14.75C22 14.9489 21.921 15.1397 21.7803 15.2803C21.6397 15.421 21.4489 15.5 21.25 15.5Z" fill="#E5E5E5"/>
</svg>
