<svg width="36" height="36" viewBox="0 0 36 36" fill="none" xmlns="http://www.w3.org/2000/svg">
<rect x="0.5" y="0.5" width="35" height="35" rx="17.5" fill="#141414" stroke="#242424"/>
<path d="M23.25 11.75H12.75C12.4848 11.75 12.2304 11.8554 12.0429 12.0429C11.8554 12.2304 11.75 12.4848 11.75 12.75V23.25C11.75 23.5152 11.8554 23.7696 12.0429 23.9571C12.2304 24.1446 12.4848 24.25 12.75 24.25H23.25C23.5152 24.25 23.7696 24.1446 23.9571 23.9571C24.1446 23.7696 24.25 23.5152 24.25 23.25V12.75C24.25 12.4848 24.1446 12.2304 23.9571 12.0429C23.7696 11.8554 23.5152 11.75 23.25 11.75ZM16 21C16 21.1326 15.9473 21.2598 15.8536 21.3536C15.7598 21.4473 15.6326 21.5 15.5 21.5C15.3674 21.5 15.2402 21.4473 15.1464 21.3536C15.0527 21.2598 15 21.1326 15 21V17C15 16.8674 15.0527 16.7402 15.1464 16.6464C15.2402 16.5527 15.3674 16.5 15.5 16.5C15.6326 16.5 15.7598 16.5527 15.8536 16.6464C15.9473 16.7402 16 16.8674 16 17V21ZM15.5 15.75C15.3517 15.75 15.2067 15.706 15.0833 15.6236C14.96 15.5412 14.8639 15.4241 14.8071 15.287C14.7503 15.15 14.7355 14.9992 14.7644 14.8537C14.7933 14.7082 14.8648 14.5746 14.9697 14.4697C15.0746 14.3648 15.2082 14.2933 15.3537 14.2644C15.4992 14.2355 15.65 14.2503 15.787 14.3071C15.9241 14.3639 16.0412 14.46 16.1236 14.5833C16.206 14.7067 16.25 14.8517 16.25 15C16.25 15.1989 16.171 15.3897 16.0303 15.5303C15.8897 15.671 15.6989 15.75 15.5 15.75ZM21.5 21C21.5 21.1326 21.4473 21.2598 21.3536 21.3536C21.2598 21.4473 21.1326 21.5 21 21.5C20.8674 21.5 20.7402 21.4473 20.6464 21.3536C20.5527 21.2598 20.5 21.1326 20.5 21V18.75C20.5 18.4185 20.3683 18.1005 20.1339 17.8661C19.8995 17.6317 19.5815 17.5 19.25 17.5C18.9185 17.5 18.6005 17.6317 18.3661 17.8661C18.1317 18.1005 18 18.4185 18 18.75V21C18 21.1326 17.9473 21.2598 17.8536 21.3536C17.7598 21.4473 17.6326 21.5 17.5 21.5C17.3674 21.5 17.2402 21.4473 17.1464 21.3536C17.0527 21.2598 17 21.1326 17 21V17C16.9997 16.8769 17.0447 16.7581 17.1265 16.6662C17.2083 16.5743 17.3211 16.5157 17.4434 16.5018C17.5657 16.4879 17.6888 16.5195 17.7892 16.5907C17.8895 16.6618 17.9602 16.7675 17.9875 16.8875C18.3258 16.6582 18.7202 16.5253 19.1284 16.5032C19.5365 16.4811 19.9429 16.5706 20.304 16.7621C20.6652 16.9536 20.9673 17.2398 21.178 17.59C21.3887 17.9403 21.5 18.3413 21.5 18.75V21Z" fill="#E5E5E5"/>
</svg>
