<svg width="28" height="28" viewBox="0 0 28 28" fill="none" xmlns="http://www.w3.org/2000/svg">
<g clip-path="url(#clip0_67_1103)">
<path d="M24.7034 11.2459C24.2911 10.815 23.8645 10.3709 23.7038 9.98047C23.555 9.62281 23.5462 9.03 23.5375 8.45578C23.5211 7.38828 23.5036 6.17859 22.6625 5.3375C21.8214 4.49641 20.6117 4.47891 19.5442 4.4625C18.97 4.45375 18.3772 4.445 18.0195 4.29625C17.6302 4.13547 17.185 3.70891 16.7541 3.29656C15.9994 2.57141 15.1419 1.75 14 1.75C12.8581 1.75 12.0017 2.57141 11.2459 3.29656C10.815 3.70891 10.3709 4.13547 9.98047 4.29625C9.625 4.445 9.03 4.45375 8.45578 4.4625C7.38828 4.47891 6.17859 4.49641 5.3375 5.3375C4.49641 6.17859 4.48438 7.38828 4.4625 8.45578C4.45375 9.03 4.445 9.62281 4.29625 9.98047C4.13547 10.3698 3.70891 10.815 3.29656 11.2459C2.57141 12.0006 1.75 12.8581 1.75 14C1.75 15.1419 2.57141 15.9983 3.29656 16.7541C3.70891 17.185 4.13547 17.6291 4.29625 18.0195C4.445 18.3772 4.45375 18.97 4.4625 19.5442C4.47891 20.6117 4.49641 21.8214 5.3375 22.6625C6.17859 23.5036 7.38828 23.5211 8.45578 23.5375C9.03 23.5462 9.62281 23.555 9.98047 23.7038C10.3698 23.8645 10.815 24.2911 11.2459 24.7034C12.0006 25.4286 12.8581 26.25 14 26.25C15.1419 26.25 15.9983 25.4286 16.7541 24.7034C17.185 24.2911 17.6291 23.8645 18.0195 23.7038C18.3772 23.555 18.97 23.5462 19.5442 23.5375C20.6117 23.5211 21.8214 23.5036 22.6625 22.6625C23.5036 21.8214 23.5211 20.6117 23.5375 19.5442C23.5462 18.97 23.555 18.3772 23.7038 18.0195C23.8645 17.6302 24.2911 17.185 24.7034 16.7541C25.4286 15.9994 26.25 15.1419 26.25 14C26.25 12.8581 25.4286 12.0017 24.7034 11.2459ZM18.9941 11.9941L12.8691 18.1191C12.7878 18.2004 12.6913 18.265 12.5851 18.309C12.4788 18.353 12.365 18.3757 12.25 18.3757C12.135 18.3757 12.0212 18.353 11.9149 18.309C11.8087 18.265 11.7122 18.2004 11.6309 18.1191L9.00594 15.4941C8.84175 15.3299 8.74951 15.1072 8.74951 14.875C8.74951 14.6428 8.84175 14.4201 9.00594 14.2559C9.17012 14.0918 9.39281 13.9995 9.625 13.9995C9.85719 13.9995 10.0799 14.0918 10.2441 14.2559L12.25 16.263L17.7559 10.7559C17.8372 10.6746 17.9337 10.6102 18.04 10.5662C18.1462 10.5222 18.26 10.4995 18.375 10.4995C18.49 10.4995 18.6038 10.5222 18.71 10.5662C18.8163 10.6102 18.9128 10.6746 18.9941 10.7559C19.0754 10.8372 19.1398 10.9337 19.1838 11.04C19.2278 11.1462 19.2505 11.26 19.2505 11.375C19.2505 11.49 19.2278 11.6038 19.1838 11.71C19.1398 11.8163 19.0754 11.9128 18.9941 11.9941Z" fill="#95B43A"/>
</g>
<defs>
<clipPath id="clip0_67_1103">
<rect width="28" height="28" fill="white"/>
</clipPath>
</defs>
</svg>
